<svg width="198" height="28" viewBox="0 0 198 28" fill="none" xmlns="http://www.w3.org/2000/svg">
<path d="M8.3 21.4C6.98 21.4 5.84667 21.17 4.9 20.71C3.95333 20.25 3.17333 19.6433 2.56 18.89C1.94667 18.1367 1.49333 17.32 1.2 16.44C0.906667 15.56 0.76 14.7067 0.76 13.88V13.44C0.76 12.52 0.91 11.6167 1.21 10.73C1.51 9.84333 1.97 9.04 2.59 8.32C3.21 7.6 3.98667 7.02667 4.92 6.6C5.85333 6.17333 6.94667 5.96 8.2 5.96C9.53333 5.96 10.7167 6.21 11.75 6.71C12.7833 7.21 13.6133 7.91 14.24 8.81C14.8667 9.71 15.2333 10.7533 15.34 11.94H11.62C11.5267 11.4333 11.3267 10.9933 11.02 10.62C10.7133 10.2467 10.32 9.95667 9.84 9.75C9.36 9.54333 8.81333 9.44 8.2 9.44C7.62667 9.44 7.11 9.54 6.65 9.74C6.19 9.94 5.80333 10.2233 5.49 10.59C5.17667 10.9567 4.93667 11.4 4.77 11.92C4.60333 12.44 4.52 13.0267 4.52 13.68C4.52 14.3333 4.60333 14.92 4.77 15.44C4.93667 15.96 5.18333 16.4067 5.51 16.78C5.83667 17.1533 6.23333 17.4367 6.7 17.63C7.16667 17.8233 7.7 17.92 8.3 17.92C9.23333 17.92 10.0233 17.6933 10.67 17.24C11.3167 16.7867 11.7067 16.18 11.84 15.42H15.56C15.44 16.5133 15.0733 17.5133 14.46 18.42C13.8467 19.3267 13.02 20.05 11.98 20.59C10.94 21.13 9.71333 21.4 8.3 21.4ZM23.68 21.4C22.3467 21.4 21.1867 21.17 20.2 20.71C19.2133 20.25 18.3933 19.6433 17.74 18.89C17.0867 18.1367 16.6 17.32 16.28 16.44C15.96 15.56 15.8 14.7067 15.8 13.88V13.44C15.8 12.52 15.9667 11.6167 16.3 10.73C16.6333 9.84333 17.1333 9.04 17.8 8.32C18.4667 7.6 19.29 7.02667 20.27 6.6C21.25 6.17333 22.3867 5.96 23.68 5.96C24.96 5.96 26.09 6.17333 27.07 6.6C28.05 7.02667 28.8733 7.6 29.54 8.32C30.2067 9.04 30.71 9.84333 31.05 10.73C31.39 11.6167 31.56 12.52 31.56 13.44V13.88C31.56 14.7067 31.3967 15.56 31.07 16.44C30.7433 17.32 30.2533 18.1367 29.6 18.89C28.9467 19.6433 28.1267 20.25 27.14 20.71C26.1533 21.17 25 21.4 23.68 21.4ZM23.68 17.92C24.32 17.92 24.8933 17.8133 25.4 17.6C25.9067 17.3867 26.34 17.0867 26.7 16.7C27.06 16.3133 27.3333 15.8633 27.52 15.35C27.7067 14.8367 27.8 14.28 27.8 13.68C27.8 13.04 27.7033 12.46 27.51 11.94C27.3167 11.42 27.04 10.9733 26.68 10.6C26.32 10.2267 25.8867 9.94 25.38 9.74C24.8733 9.54 24.3067 9.44 23.68 9.44C23.04 9.44 22.4667 9.54 21.96 9.74C21.4533 9.94 21.02 10.2267 20.66 10.6C20.3 10.9733 20.0267 11.42 19.84 11.94C19.6533 12.46 19.56 13.04 19.56 13.68C19.56 14.28 19.6533 14.8367 19.84 15.35C20.0267 15.8633 20.3 16.3133 20.66 16.7C21.02 17.0867 21.4533 17.3867 21.96 17.6C22.4667 17.8133 23.04 17.92 23.68 17.92ZM32.8 21V6.4H38.9L43.76 18.04H44.46L44.06 18.4V6.4H47.54V21H41.4L36.54 9.36H35.84L36.24 9V21H32.8ZM59.56 25.4C58.6 25.4 57.7667 25.2933 57.06 25.08C56.3533 24.8667 55.8033 24.4733 55.41 23.9C55.0167 23.3267 54.82 22.4933 54.82 21.4V19H58.3V21.48C58.3 21.8533 58.4033 22.1333 58.61 22.32C58.8167 22.5067 59.1067 22.6 59.48 22.6H61.56V25.4H59.56ZM56.66 21.4C55.3267 21.4 54.1667 21.17 53.18 20.71C52.1933 20.25 51.3733 19.6433 50.72 18.89C50.0667 18.1367 49.58 17.32 49.26 16.44C48.94 15.56 48.78 14.7067 48.78 13.88V13.44C48.78 12.52 48.9467 11.6167 49.28 10.73C49.6133 9.84333 50.1133 9.04 50.78 8.32C51.4467 7.6 52.27 7.02667 53.25 6.6C54.23 6.17333 55.3667 5.96 56.66 5.96C57.94 5.96 59.07 6.17333 60.05 6.6C61.03 7.02667 61.8533 7.6 62.52 8.32C63.1867 9.04 63.69 9.84333 64.03 10.73C64.37 11.6167 64.54 12.52 64.54 13.44V13.88C64.54 14.7067 64.3767 15.56 64.05 16.44C63.7233 17.32 63.2333 18.1367 62.58 18.89C61.9267 19.6433 61.1067 20.25 60.12 20.71C59.1333 21.17 57.98 21.4 56.66 21.4ZM56.66 17.92C57.3 17.92 57.8733 17.8133 58.38 17.6C58.8867 17.3867 59.32 17.0867 59.68 16.7C60.04 16.3133 60.3133 15.8633 60.5 15.35C60.6867 14.8367 60.78 14.28 60.78 13.68C60.78 13.04 60.6833 12.46 60.49 11.94C60.2967 11.42 60.02 10.9733 59.66 10.6C59.3 10.2267 58.8667 9.94 58.36 9.74C57.8533 9.54 57.2867 9.44 56.66 9.44C56.02 9.44 55.4467 9.54 54.94 9.74C54.4333 9.94 54 10.2267 53.64 10.6C53.28 10.9733 53.0067 11.42 52.82 11.94C52.6333 12.46 52.54 13.04 52.54 13.68C52.54 14.28 52.6333 14.8367 52.82 15.35C53.0067 15.8633 53.28 16.3133 53.64 16.7C54 17.0867 54.4333 17.3867 54.94 17.6C55.4467 17.8133 56.02 17.92 56.66 17.92ZM72.02 21.4C70.62 21.4 69.4367 21.14 68.47 20.62C67.5033 20.1 66.7667 19.3633 66.26 18.41C65.7533 17.4567 65.5 16.3267 65.5 15.02V6.4H69.22V15.1C69.22 15.6733 69.33 16.1733 69.55 16.6C69.77 17.0267 70.0867 17.3533 70.5 17.58C70.9133 17.8067 71.42 17.92 72.02 17.92C72.62 17.92 73.1267 17.8067 73.54 17.58C73.9533 17.3533 74.2667 17.03 74.48 16.61C74.6933 16.19 74.8 15.6867 74.8 15.1V6.4H78.52V15.02C78.52 16.3267 78.27 17.4567 77.77 18.41C77.27 19.3633 76.5367 20.1 75.57 20.62C74.6033 21.14 73.42 21.4 72.02 21.4ZM80.2 21V6.4H83.8V21H80.2ZM83.4 21V17.96H89.56V21H83.4ZM83.4 15.1V12.06H89.14V15.1H83.4ZM83.4 9.44V6.4H89.44V9.44H83.4ZM91.04 21V6.28H94.76V21H91.04ZM99.84 21L95.74 14.8H99.78L104.12 21H99.84ZM93.82 16.52V13.66H97.32C97.76 13.66 98.14 13.5733 98.46 13.4C98.78 13.2267 99.03 12.98 99.21 12.66C99.39 12.34 99.48 11.9667 99.48 11.54C99.48 11.1 99.39 10.72 99.21 10.4C99.03 10.08 98.78 9.83333 98.46 9.66C98.14 9.48667 97.76 9.4 97.32 9.4H93.82V6.28H97.1C98.3667 6.28 99.46 6.47 100.38 6.85C101.3 7.23 102.007 7.79 102.5 8.53C102.993 9.27 103.24 10.1867 103.24 11.28V11.6C103.24 12.6933 102.99 13.6033 102.49 14.33C101.99 15.0567 101.283 15.6033 100.37 15.97C99.4567 16.3367 98.3667 16.52 97.1 16.52H93.82Z" fill="white"/>
<rect width="92.2" height="28" transform="translate(105.37)" fill="url(#paint0_linear_1_413)"/>
<path d="M116.05 21.12V18.28H119.27C119.817 18.28 120.223 18.14 120.49 17.86C120.757 17.58 120.89 17.1733 120.89 16.64C120.89 16.1067 120.757 15.7033 120.49 15.43C120.223 15.1567 119.817 15.02 119.27 15.02H116.05V12.82H119.15C120.177 12.82 121.097 12.9433 121.91 13.19C122.723 13.4367 123.363 13.84 123.83 14.4C124.297 14.96 124.53 15.7067 124.53 16.64V16.92C124.53 17.8 124.323 18.5533 123.91 19.18C123.497 19.8067 122.89 20.2867 122.09 20.62C121.29 20.9533 120.31 21.12 119.15 21.12H116.05ZM112.85 21.12V6.28H116.45V21.12H112.85ZM116.05 14.46V12.26H118.73C119.277 12.26 119.673 12.1233 119.92 11.85C120.167 11.5767 120.29 11.1933 120.29 10.7C120.29 10.1933 120.167 9.80333 119.92 9.53C119.673 9.25667 119.277 9.12 118.73 9.12H116.05V6.28H118.57C120.277 6.28 121.597 6.63667 122.53 7.35C123.463 8.06333 123.93 9.08 123.93 10.4V10.7C123.93 11.62 123.693 12.3567 123.22 12.91C122.747 13.4633 122.107 13.86 121.3 14.1C120.493 14.34 119.583 14.46 118.57 14.46H116.05ZM125.77 21V6.4H129.49V21H125.77ZM129.09 21V17.76H135.01V21H129.09ZM142.85 21.4C141.517 21.4 140.357 21.17 139.37 20.71C138.383 20.25 137.563 19.6433 136.91 18.89C136.257 18.1367 135.77 17.32 135.45 16.44C135.13 15.56 134.97 14.7067 134.97 13.88V13.44C134.97 12.52 135.137 11.6167 135.47 10.73C135.803 9.84333 136.303 9.04 136.97 8.32C137.637 7.6 138.46 7.02667 139.44 6.6C140.42 6.17333 141.557 5.96 142.85 5.96C144.13 5.96 145.26 6.17333 146.24 6.6C147.22 7.02667 148.043 7.6 148.71 8.32C149.377 9.04 149.88 9.84333 150.22 10.73C150.56 11.6167 150.73 12.52 150.73 13.44V13.88C150.73 14.7067 150.567 15.56 150.24 16.44C149.913 17.32 149.423 18.1367 148.77 18.89C148.117 19.6433 147.297 20.25 146.31 20.71C145.323 21.17 144.17 21.4 142.85 21.4ZM142.85 17.92C143.49 17.92 144.063 17.8133 144.57 17.6C145.077 17.3867 145.51 17.0867 145.87 16.7C146.23 16.3133 146.503 15.8633 146.69 15.35C146.877 14.8367 146.97 14.28 146.97 13.68C146.97 13.04 146.873 12.46 146.68 11.94C146.487 11.42 146.21 10.9733 145.85 10.6C145.49 10.2267 145.057 9.94 144.55 9.74C144.043 9.54 143.477 9.44 142.85 9.44C142.21 9.44 141.637 9.54 141.13 9.74C140.623 9.94 140.19 10.2267 139.83 10.6C139.47 10.9733 139.197 11.42 139.01 11.94C138.823 12.46 138.73 13.04 138.73 13.68C138.73 14.28 138.823 14.8367 139.01 15.35C139.197 15.8633 139.47 16.3133 139.83 16.7C140.19 17.0867 140.623 17.3867 141.13 17.6C141.637 17.8133 142.21 17.92 142.85 17.92ZM158.79 21.4C157.47 21.4 156.337 21.17 155.39 20.71C154.443 20.25 153.663 19.6433 153.05 18.89C152.437 18.1367 151.983 17.32 151.69 16.44C151.397 15.56 151.25 14.7067 151.25 13.88V13.44C151.25 12.52 151.4 11.6167 151.7 10.73C152 9.84333 152.46 9.04 153.08 8.32C153.7 7.6 154.477 7.02667 155.41 6.6C156.343 6.17333 157.437 5.96 158.69 5.96C160.023 5.96 161.207 6.21 162.24 6.71C163.273 7.21 164.103 7.91 164.73 8.81C165.357 9.71 165.723 10.7533 165.83 11.94H162.11C162.017 11.4333 161.817 10.9933 161.51 10.62C161.203 10.2467 160.81 9.95667 160.33 9.75C159.85 9.54333 159.303 9.44 158.69 9.44C158.117 9.44 157.6 9.54 157.14 9.74C156.68 9.94 156.293 10.2233 155.98 10.59C155.667 10.9567 155.427 11.4 155.26 11.92C155.093 12.44 155.01 13.0267 155.01 13.68C155.01 14.3333 155.093 14.92 155.26 15.44C155.427 15.96 155.673 16.4067 156 16.78C156.327 17.1533 156.723 17.4367 157.19 17.63C157.657 17.8233 158.19 17.92 158.79 17.92C159.723 17.92 160.513 17.6933 161.16 17.24C161.807 16.7867 162.197 16.18 162.33 15.42H166.05C165.93 16.5133 165.563 17.5133 164.95 18.42C164.337 19.3267 163.51 20.05 162.47 20.59C161.43 21.13 160.203 21.4 158.79 21.4ZM176.73 21L171.99 14.18H170.01L175.91 6.4H180.19L174.91 13.36V11.94L181.21 21H176.73ZM167.01 21V6.4H170.73V21H167.01ZM186.07 21.4C184.71 21.4 183.567 21.1867 182.64 20.76C181.713 20.3333 181.013 19.75 180.54 19.01C180.067 18.27 179.83 17.42 179.83 16.46H183.43C183.43 16.8067 183.527 17.1233 183.72 17.41C183.913 17.6967 184.203 17.92 184.59 18.08C184.977 18.24 185.47 18.32 186.07 18.32C186.59 18.32 187.033 18.2533 187.4 18.12C187.767 17.9867 188.047 17.8 188.24 17.56C188.433 17.32 188.53 17.0333 188.53 16.7C188.53 16.2733 188.35 15.9433 187.99 15.71C187.63 15.4767 187.023 15.3267 186.17 15.26L185.23 15.18C183.723 15.0467 182.523 14.5733 181.63 13.76C180.737 12.9467 180.29 11.8667 180.29 10.52C180.29 9.56 180.513 8.74 180.96 8.06C181.407 7.38 182.037 6.86 182.85 6.5C183.663 6.14 184.623 5.96 185.73 5.96C186.93 5.96 187.947 6.16 188.78 6.56C189.613 6.96 190.25 7.52333 190.69 8.25C191.13 8.97667 191.35 9.82 191.35 10.78H187.75C187.75 10.46 187.67 10.1667 187.51 9.9C187.35 9.63333 187.12 9.42333 186.82 9.27C186.52 9.11667 186.157 9.04 185.73 9.04C185.33 9.04 184.993 9.10333 184.72 9.23C184.447 9.35667 184.24 9.53333 184.1 9.76C183.96 9.98667 183.89 10.24 183.89 10.52C183.89 10.8933 184.017 11.2133 184.27 11.48C184.523 11.7467 184.963 11.9067 185.59 11.96L186.53 12.04C187.623 12.1333 188.59 12.37 189.43 12.75C190.27 13.13 190.93 13.6467 191.41 14.3C191.89 14.9533 192.13 15.7533 192.13 16.7C192.13 17.6467 191.887 18.4733 191.4 19.18C190.913 19.8867 190.22 20.4333 189.32 20.82C188.42 21.2067 187.337 21.4 186.07 21.4Z" fill="black"/>
<defs>
<linearGradient id="paint0_linear_1_413" x1="16.05" y1="-16.05" x2="76.15" y2="44.05" gradientUnits="userSpaceOnUse">
<stop stop-color="#D4FF00"/>
<stop offset="1" stop-color="#00D4FF"/>
</linearGradient>
</defs>
</svg>
